<mxfile host="app.diagrams.net" agent="Mozilla/5.0 (Windows NT 10.0; Win64; x64) AppleWebKit/537.36 (KHTML, like Gecko) Chrome/134.0.0.0 Safari/537.36" version="26.1.0">
  <diagram name="Page-1" id="KBOxjKc694XOIhg12iKn">
    <mxGraphModel dx="1366" dy="710" grid="0" gridSize="10" guides="1" tooltips="1" connect="1" arrows="1" fold="1" page="0" pageScale="1" pageWidth="850" pageHeight="1100" math="0" shadow="0">
      <root>
        <mxCell id="0" />
        <mxCell id="1" parent="0" />
        <mxCell id="GeQ2a6r7HCaLVqQBKEyj-33" value="" style="rounded=0;whiteSpace=wrap;html=1;fillColor=none;dashed=1;fontStyle=1" parent="1" vertex="1">
          <mxGeometry x="810" y="150" width="170" height="540" as="geometry" />
        </mxCell>
        <mxCell id="GeQ2a6r7HCaLVqQBKEyj-21" value="" style="rounded=0;whiteSpace=wrap;html=1;fillColor=none;dashed=1;fontStyle=1" parent="1" vertex="1">
          <mxGeometry x="15" y="150" width="170" height="540" as="geometry" />
        </mxCell>
        <mxCell id="GeQ2a6r7HCaLVqQBKEyj-19" value="" style="rounded=0;whiteSpace=wrap;html=1;fillColor=none;dashed=1;" parent="1" vertex="1">
          <mxGeometry x="210" y="150" width="580" height="540" as="geometry" />
        </mxCell>
        <mxCell id="GeQ2a6r7HCaLVqQBKEyj-1" value="Data architecture" style="rounded=0;whiteSpace=wrap;html=1;fontStyle=1" parent="1" vertex="1">
          <mxGeometry x="10" y="20" width="970" height="60" as="geometry" />
        </mxCell>
        <mxCell id="GeQ2a6r7HCaLVqQBKEyj-2" value="" style="rounded=1;whiteSpace=wrap;html=1;" parent="1" vertex="1">
          <mxGeometry x="40" y="230" width="120" height="430" as="geometry" />
        </mxCell>
        <mxCell id="GeQ2a6r7HCaLVqQBKEyj-3" value="Data load" style="rounded=0;whiteSpace=wrap;html=1;fillColor=none;strokeColor=none;fontStyle=1" parent="1" vertex="1">
          <mxGeometry x="40" y="190" width="120" height="30" as="geometry" />
        </mxCell>
        <mxCell id="GeQ2a6r7HCaLVqQBKEyj-5" value="" style="rounded=1;whiteSpace=wrap;html=1;strokeColor=#8A603E;fillColor=default;" parent="1" vertex="1">
          <mxGeometry x="220" y="230" width="160" height="430" as="geometry" />
        </mxCell>
        <mxCell id="GeQ2a6r7HCaLVqQBKEyj-6" value="&lt;span style=&quot;background-color: light-dark(#ffffff, var(--ge-dark-color, #121212));&quot;&gt;&lt;font style=&quot;color: light-dark(rgb(138, 96, 62), rgb(153, 125, 95));&quot;&gt;Bronze&lt;/font&gt;&lt;/span&gt;" style="rounded=0;whiteSpace=wrap;html=1;fillColor=none;strokeColor=none;fontStyle=1" parent="1" vertex="1">
          <mxGeometry x="220" y="190" width="160" height="30" as="geometry" />
        </mxCell>
        <mxCell id="GeQ2a6r7HCaLVqQBKEyj-7" value="" style="rounded=1;whiteSpace=wrap;html=1;strokeColor=#757575;fillColor=default;" parent="1" vertex="1">
          <mxGeometry x="420" y="230" width="160" height="430" as="geometry" />
        </mxCell>
        <mxCell id="GeQ2a6r7HCaLVqQBKEyj-8" value="&lt;font style=&quot;color: rgb(117, 117, 117);&quot;&gt;Silver&lt;/font&gt;" style="rounded=0;whiteSpace=wrap;html=1;fillColor=none;strokeColor=none;fontStyle=1" parent="1" vertex="1">
          <mxGeometry x="420" y="190" width="160" height="30" as="geometry" />
        </mxCell>
        <mxCell id="GeQ2a6r7HCaLVqQBKEyj-9" value="" style="rounded=1;whiteSpace=wrap;html=1;strokeColor=#BFA34D;" parent="1" vertex="1">
          <mxGeometry x="620" y="230" width="160" height="430" as="geometry" />
        </mxCell>
        <mxCell id="GeQ2a6r7HCaLVqQBKEyj-10" value="&lt;font style=&quot;color: rgb(191, 163, 77);&quot;&gt;Gold&lt;/font&gt;" style="rounded=0;whiteSpace=wrap;html=1;fillColor=none;strokeColor=none;" parent="1" vertex="1">
          <mxGeometry x="620" y="190" width="160" height="30" as="geometry" />
        </mxCell>
        <mxCell id="GeQ2a6r7HCaLVqQBKEyj-11" value="" style="rounded=1;whiteSpace=wrap;html=1;strokeColor=#000000;" parent="1" vertex="1">
          <mxGeometry x="835" y="230" width="120" height="430" as="geometry" />
        </mxCell>
        <mxCell id="GeQ2a6r7HCaLVqQBKEyj-12" value="&lt;font style=&quot;color: rgb(0, 0, 0);&quot;&gt;Analysis&lt;/font&gt;" style="rounded=0;whiteSpace=wrap;html=1;fillColor=none;strokeColor=none;fontStyle=1" parent="1" vertex="1">
          <mxGeometry x="835" y="190" width="120" height="30" as="geometry" />
        </mxCell>
        <mxCell id="GeQ2a6r7HCaLVqQBKEyj-13" value="ERP" style="verticalLabelPosition=bottom;html=1;verticalAlign=top;align=center;strokeColor=none;fillColor=#00BEF2;shape=mxgraph.azure.file_2;pointerEvents=1;" parent="1" vertex="1">
          <mxGeometry x="76.25" y="290" width="47.5" height="50" as="geometry" />
        </mxCell>
        <mxCell id="GeQ2a6r7HCaLVqQBKEyj-14" value="CRM&lt;div&gt;&lt;br&gt;&lt;/div&gt;" style="verticalLabelPosition=bottom;html=1;verticalAlign=top;align=center;strokeColor=none;fillColor=#00BEF2;shape=mxgraph.azure.file_2;pointerEvents=1;" parent="1" vertex="1">
          <mxGeometry x="76.25" y="380" width="47.5" height="50" as="geometry" />
        </mxCell>
        <mxCell id="GeQ2a6r7HCaLVqQBKEyj-15" value="Object: CSV FILES&lt;div&gt;Interface: Files in Folders&lt;/div&gt;" style="rounded=0;whiteSpace=wrap;html=1;fillColor=none;strokeColor=none;align=center;" parent="1" vertex="1">
          <mxGeometry x="40" y="500" width="120" height="100" as="geometry" />
        </mxCell>
        <mxCell id="GeQ2a6r7HCaLVqQBKEyj-16" value="Raw Data" style="shape=datastore;whiteSpace=wrap;html=1;gradientColor=#8A603E;strokeColor=#8A603E;" parent="1" vertex="1">
          <mxGeometry x="260" y="250" width="80" height="90" as="geometry" />
        </mxCell>
        <mxCell id="GeQ2a6r7HCaLVqQBKEyj-17" value="Cleaned, Standardised Data" style="shape=datastore;whiteSpace=wrap;html=1;strokeColor=#757575;gradientColor=#757575;" parent="1" vertex="1">
          <mxGeometry x="460" y="250" width="80" height="90" as="geometry" />
        </mxCell>
        <mxCell id="GeQ2a6r7HCaLVqQBKEyj-18" value="Business-ready data" style="shape=datastore;whiteSpace=wrap;html=1;fontColor=#000000;strokeColor=#BFA34D;gradientColor=#BFA34D;fillColor=default;labelBorderColor=none;" parent="1" vertex="1">
          <mxGeometry x="660" y="250" width="80" height="90" as="geometry" />
        </mxCell>
        <mxCell id="GeQ2a6r7HCaLVqQBKEyj-20" value="Data Warehouse" style="rounded=0;whiteSpace=wrap;html=1;fillColor=none;strokeColor=none;fontStyle=1" parent="1" vertex="1">
          <mxGeometry x="440" y="110" width="120" height="30" as="geometry" />
        </mxCell>
        <mxCell id="GeQ2a6r7HCaLVqQBKEyj-22" value="Source" style="rounded=0;whiteSpace=wrap;html=1;fillColor=none;strokeColor=none;fontStyle=1" parent="1" vertex="1">
          <mxGeometry x="40" y="110" width="120" height="30" as="geometry" />
        </mxCell>
        <mxCell id="GeQ2a6r7HCaLVqQBKEyj-23" value="" style="image;aspect=fixed;html=1;points=[];align=center;fontSize=12;image=img/lib/azure2/power_platform/PowerBI.svg;" parent="1" vertex="1">
          <mxGeometry x="870" y="290" width="51" height="68" as="geometry" />
        </mxCell>
        <mxCell id="GeQ2a6r7HCaLVqQBKEyj-24" value="" style="image;aspect=fixed;html=1;points=[];align=center;fontSize=12;image=img/lib/azure2/app_services/Search_Services.svg;" parent="1" vertex="1">
          <mxGeometry x="859.5" y="411" width="72" height="52" as="geometry" />
        </mxCell>
        <mxCell id="GeQ2a6r7HCaLVqQBKEyj-25" value="" style="sketch=0;outlineConnect=0;fontColor=#232F3E;gradientColor=none;fillColor=#7AA116;strokeColor=none;dashed=0;verticalLabelPosition=bottom;verticalAlign=top;align=center;html=1;fontSize=12;fontStyle=0;aspect=fixed;pointerEvents=1;shape=mxgraph.aws4.iot_greengrass_component_machine_learning;" parent="1" vertex="1">
          <mxGeometry x="856" y="511" width="78" height="78" as="geometry" />
        </mxCell>
        <mxCell id="GeQ2a6r7HCaLVqQBKEyj-26" value="&lt;div style=&quot;text-align: left;&quot;&gt;&lt;span style=&quot;background-color: transparent; color: light-dark(rgb(0, 0, 0), rgb(255, 255, 255));&quot;&gt;Object: Table&lt;/span&gt;&lt;/div&gt;&lt;div&gt;&lt;br&gt;&lt;/div&gt;&lt;div style=&quot;text-align: left;&quot;&gt;Load:&lt;/div&gt;&lt;div style=&quot;text-align: left;&quot;&gt;&lt;ul&gt;&lt;li&gt;Batch Processing&lt;/li&gt;&lt;li&gt;Full load&lt;/li&gt;&lt;li&gt;Truncate &amp;amp; Insert&lt;/li&gt;&lt;/ul&gt;&lt;div&gt;No Transformation&lt;/div&gt;&lt;div&gt;No Data Model&lt;/div&gt;&lt;div&gt;&lt;br&gt;&lt;/div&gt;&lt;div&gt;&lt;br&gt;&lt;/div&gt;&lt;div&gt;&lt;br&gt;&lt;/div&gt;&lt;div&gt;&lt;br&gt;&lt;/div&gt;&lt;div&gt;&lt;br&gt;&lt;/div&gt;&lt;div&gt;&lt;br&gt;&lt;/div&gt;&lt;div&gt;&lt;br&gt;&lt;/div&gt;&lt;div&gt;&lt;br&gt;&lt;/div&gt;&lt;/div&gt;&lt;div style=&quot;text-align: left;&quot;&gt;&lt;br&gt;&lt;/div&gt;" style="rounded=0;whiteSpace=wrap;html=1;fillColor=none;strokeColor=none;align=center;" parent="1" vertex="1">
          <mxGeometry x="230" y="358" width="140" height="270" as="geometry" />
        </mxCell>
        <mxCell id="GeQ2a6r7HCaLVqQBKEyj-29" value="&lt;div style=&quot;text-align: left;&quot;&gt;&lt;span style=&quot;background-color: transparent; color: light-dark(rgb(0, 0, 0), rgb(255, 255, 255));&quot;&gt;Object: Table&lt;/span&gt;&lt;/div&gt;&lt;div&gt;&lt;br&gt;&lt;/div&gt;&lt;div style=&quot;text-align: left;&quot;&gt;Load:&lt;/div&gt;&lt;div style=&quot;text-align: left;&quot;&gt;&lt;ul&gt;&lt;li&gt;Batch Processing&lt;/li&gt;&lt;li&gt;Full load&lt;/li&gt;&lt;li&gt;Truncate &amp;amp; Insert&lt;/li&gt;&lt;/ul&gt;&lt;div&gt;Transformation:&lt;/div&gt;&lt;div&gt;&lt;ul&gt;&lt;li&gt;Data wrangling&lt;/li&gt;&lt;li&gt;Data Normalisation&lt;/li&gt;&lt;li&gt;Enhanced Columns&lt;/li&gt;&lt;li&gt;New Columns&lt;/li&gt;&lt;/ul&gt;&lt;div&gt;No Data Model&lt;/div&gt;&lt;/div&gt;&lt;div&gt;&lt;br&gt;&lt;/div&gt;&lt;/div&gt;&lt;div style=&quot;text-align: left;&quot;&gt;&lt;br&gt;&lt;/div&gt;" style="rounded=0;whiteSpace=wrap;html=1;fillColor=none;strokeColor=none;align=center;" parent="1" vertex="1">
          <mxGeometry x="430" y="358" width="140" height="270" as="geometry" />
        </mxCell>
        <mxCell id="GeQ2a6r7HCaLVqQBKEyj-30" value="&lt;div style=&quot;text-align: left;&quot;&gt;&lt;span style=&quot;background-color: transparent; color: light-dark(rgb(0, 0, 0), rgb(255, 255, 255));&quot;&gt;Object: Views&lt;/span&gt;&lt;/div&gt;&lt;div&gt;&lt;br&gt;&lt;/div&gt;&lt;div style=&quot;text-align: left;&quot;&gt;No Loading&lt;/div&gt;&lt;div style=&quot;text-align: left;&quot;&gt;&lt;br&gt;&lt;/div&gt;&lt;div style=&quot;text-align: left;&quot;&gt;&lt;div&gt;Transformation:&lt;/div&gt;&lt;div&gt;&lt;ul&gt;&lt;li&gt;Integration&lt;/li&gt;&lt;li&gt;Aggregations&lt;/li&gt;&lt;li&gt;Busines Domain Logics&lt;/li&gt;&lt;/ul&gt;&lt;div&gt;Data Model:&lt;/div&gt;&lt;/div&gt;&lt;div&gt;&lt;ul&gt;&lt;li&gt;Star Schema&lt;/li&gt;&lt;li&gt;Flat table&lt;/li&gt;&lt;li&gt;Aggregated table&lt;/li&gt;&lt;/ul&gt;&lt;/div&gt;&lt;div&gt;&lt;br&gt;&lt;/div&gt;&lt;/div&gt;&lt;div style=&quot;text-align: left;&quot;&gt;&lt;br&gt;&lt;/div&gt;" style="rounded=0;whiteSpace=wrap;html=1;fillColor=none;strokeColor=none;align=center;" parent="1" vertex="1">
          <mxGeometry x="630" y="358" width="140" height="270" as="geometry" />
        </mxCell>
        <mxCell id="GeQ2a6r7HCaLVqQBKEyj-35" value="End Product" style="rounded=0;whiteSpace=wrap;html=1;fillColor=none;strokeColor=none;fontStyle=1" parent="1" vertex="1">
          <mxGeometry x="835" y="110" width="120" height="30" as="geometry" />
        </mxCell>
        <mxCell id="ZW3Sw3IibblGBa2JjiYm-1" value="" style="shape=mxgraph.signs.nature.snowflake;html=1;pointerEvents=1;fillColor=#000000;strokeColor=none;verticalLabelPosition=bottom;verticalAlign=top;align=center;" vertex="1" parent="1">
          <mxGeometry x="560" y="110" width="30" height="30" as="geometry" />
        </mxCell>
      </root>
    </mxGraphModel>
  </diagram>
</mxfile>
